<?xml version="1.0" encoding="UTF-8"?>
<!DOCTYPE svg PUBLIC "-//W3C//DTD SVG 1.1//EN" "http://www.w3.org/Graphics/SVG/1.1/DTD/svg11.dtd">
<svg version="1.2" width="254mm" height="254mm" viewBox="0 0 25400 25400" preserveAspectRatio="xMidYMid" fill-rule="evenodd" stroke-width="28.222" stroke-linejoin="round" xmlns="http://www.w3.org/2000/svg" xmlns:ooo="http://xml.openoffice.org/svg/export" xmlns:xlink="http://www.w3.org/1999/xlink" xmlns:presentation="http://sun.com/xmlns/staroffice/presentation" xmlns:smil="http://www.w3.org/2001/SMIL20/" xmlns:anim="urn:oasis:names:tc:opendocument:xmlns:animation:1.0" xml:space="preserve">
 <defs class="ClipPathGroup">
  <clipPath id="presentation_clip_path" clipPathUnits="userSpaceOnUse">
   <rect x="0" y="0" width="25400" height="25400"/>
  </clipPath>
  <clipPath id="presentation_clip_path_shrink" clipPathUnits="userSpaceOnUse">
   <rect x="25" y="25" width="25350" height="25350"/>
  </clipPath>
 </defs>
 <defs class="TextShapeIndex">
  <g ooo:slide="id1" ooo:id-list="id3 id4 id5 id6 id7 id8 id9 id10 id11 id12 id13 id14 id15 id16 id17 id18 id19 id20 id21 id22 id23"/>
 </defs>
 <defs class="EmbeddedBulletChars">
  <g id="bullet-char-template-57356" transform="scale(0.00048828125,-0.00048828125)">
   <path d="M 580,1141 L 1163,571 580,0 -4,571 580,1141 Z"/>
  </g>
  <g id="bullet-char-template-57354" transform="scale(0.00048828125,-0.00048828125)">
   <path d="M 8,1128 L 1137,1128 1137,0 8,0 8,1128 Z"/>
  </g>
  <g id="bullet-char-template-10146" transform="scale(0.00048828125,-0.00048828125)">
   <path d="M 174,0 L 602,739 174,1481 1456,739 174,0 Z M 1358,739 L 309,1346 659,739 1358,739 Z"/>
  </g>
  <g id="bullet-char-template-10132" transform="scale(0.00048828125,-0.00048828125)">
   <path d="M 2015,739 L 1276,0 717,0 1260,543 174,543 174,936 1260,936 717,1481 1274,1481 2015,739 Z"/>
  </g>
  <g id="bullet-char-template-10007" transform="scale(0.00048828125,-0.00048828125)">
   <path d="M 0,-2 C -7,14 -16,27 -25,37 L 356,567 C 262,823 215,952 215,954 215,979 228,992 255,992 264,992 276,990 289,987 310,991 331,999 354,1012 L 381,999 492,748 772,1049 836,1024 860,1049 C 881,1039 901,1025 922,1006 886,937 835,863 770,784 769,783 710,716 594,584 L 774,223 C 774,196 753,168 711,139 L 727,119 C 717,90 699,76 672,76 641,76 570,178 457,381 L 164,-76 C 142,-110 111,-127 72,-127 30,-127 9,-110 8,-76 1,-67 -2,-52 -2,-32 -2,-23 -1,-13 0,-2 Z"/>
  </g>
  <g id="bullet-char-template-10004" transform="scale(0.00048828125,-0.00048828125)">
   <path d="M 285,-33 C 182,-33 111,30 74,156 52,228 41,333 41,471 41,549 55,616 82,672 116,743 169,778 240,778 293,778 328,747 346,684 L 369,508 C 377,444 397,411 428,410 L 1163,1116 C 1174,1127 1196,1133 1229,1133 1271,1133 1292,1118 1292,1087 L 1292,965 C 1292,929 1282,901 1262,881 L 442,47 C 390,-6 338,-33 285,-33 Z"/>
  </g>
  <g id="bullet-char-template-9679" transform="scale(0.00048828125,-0.00048828125)">
   <path d="M 813,0 C 632,0 489,54 383,161 276,268 223,411 223,592 223,773 276,916 383,1023 489,1130 632,1184 813,1184 992,1184 1136,1130 1245,1023 1353,916 1407,772 1407,592 1407,412 1353,268 1245,161 1136,54 992,0 813,0 Z"/>
  </g>
  <g id="bullet-char-template-8226" transform="scale(0.00048828125,-0.00048828125)">
   <path d="M 346,457 C 273,457 209,483 155,535 101,586 74,649 74,723 74,796 101,859 155,911 209,963 273,989 346,989 419,989 480,963 531,910 582,859 608,796 608,723 608,648 583,586 532,535 482,483 420,457 346,457 Z"/>
  </g>
  <g id="bullet-char-template-8211" transform="scale(0.00048828125,-0.00048828125)">
   <path d="M -4,459 L 1135,459 1135,606 -4,606 -4,459 Z"/>
  </g>
  <g id="bullet-char-template-61548" transform="scale(0.00048828125,-0.00048828125)">
   <path d="M 173,740 C 173,903 231,1043 346,1159 462,1274 601,1332 765,1332 928,1332 1067,1274 1183,1159 1299,1043 1357,903 1357,740 1357,577 1299,437 1183,322 1067,206 928,148 765,148 601,148 462,206 346,322 231,437 173,577 173,740 Z"/>
  </g>
 </defs>
 <g>
  <g id="id2" class="Master_Slide">
   <g id="bg-id2" class="Background"/>
   <g id="bo-id2" class="BackgroundObjects"/>
  </g>
 </g>
 <g class="SlideGroup">
  <g>
   <g id="container-id1">
    <g id="id1" class="Slide" clip-path="url(#presentation_clip_path)">
     <g class="Page">
      <g id="bg-id1" class="Background">
       <path fill="rgb(0,0,0)" stroke="none" d="M 12700,25399 L 0,25399 0,0 25399,0 25399,25399 12700,25399 Z"/>
      </g>
      <g class="Group">
       <g class="com.sun.star.drawing.ClosedBezierShape">
        <g id="id3">
         <rect class="BoundingBox" stroke="none" fill="none" x="4523" y="3473" width="2730" height="3058"/>
         <path fill="rgb(255,255,255)" stroke="none" d="M 7252,3473 C 7217,3575 7182,3678 7148,3780 6898,3780 6648,3780 6398,3780 6086,4697 5775,5613 5463,6530 5150,6530 4836,6530 4523,6530 4835,5613 5146,4697 5458,3780 5206,3780 4954,3780 4703,3780 4737,3678 4772,3575 4807,3473 5622,3473 6437,3473 7252,3473 Z"/>
        </g>
       </g>
       <g class="com.sun.star.drawing.ClosedBezierShape">
        <g id="id4">
         <rect class="BoundingBox" stroke="none" fill="none" x="6398" y="3426" width="2787" height="3105"/>
         <path fill="rgb(255,255,255)" stroke="none" d="M 6398,6530 L 7437,3473 C 7679,3473 7956,3457 8270,3426 L 7850,4660 C 8128,4363 8427,4215 8748,4215 9127,4215 9259,4385 9143,4725 L 8530,6530 7713,6530 8296,4815 C 8340,4685 8319,4620 8232,4620 8142,4620 8030,4703 7896,4870 7762,5036 7662,5215 7597,5406 L 7215,6530 6398,6530 Z"/>
        </g>
       </g>
       <g class="com.sun.star.drawing.ClosedBezierShape">
        <g id="id5">
         <rect class="BoundingBox" stroke="none" fill="none" x="9150" y="4209" width="2270" height="2374"/>
         <path fill="rgb(255,255,255)" stroke="none" d="M 10885,5704 L 11181,5800 C 10969,6321 10573,6582 9993,6582 9240,6582 8992,6206 9247,5455 9371,5091 9572,4792 9852,4559 10131,4326 10426,4210 10738,4210 11391,4210 11574,4631 11288,5473 L 10096,5473 C 9895,6064 9945,6360 10245,6360 10525,6360 10722,6193 10836,5858 10851,5813 10867,5762 10885,5704 Z M 10180,5220 L 10668,5220 C 10847,4695 10857,4432 10699,4432 10555,4432 10409,4627 10258,5016 L 10180,5220 Z"/>
        </g>
       </g>
       <g class="com.sun.star.drawing.ClosedBezierShape">
        <g id="id6">
         <rect class="BoundingBox" stroke="none" fill="none" x="12691" y="3473" width="3254" height="3058"/>
         <path fill="rgb(255,255,255)" stroke="none" d="M 12691,6530 L 13730,3473 15045,3473 C 15386,3473 15635,3545 15791,3689 15946,3833 15983,4026 15901,4268 15775,4638 15473,4880 14997,4992 15194,5075 15308,5167 15341,5267 15373,5367 15352,5561 15278,5849 15190,6193 15170,6420 15219,6530 L 14257,6530 C 14243,6388 14273,6211 14345,5999 L 14402,5818 14475,5589 C 14595,5237 14513,5061 14230,5061 L 14077,5061 13578,6530 12691,6530 Z M 14163,4808 L 14342,4808 C 14678,4808 14906,4633 15025,4282 15144,3931 15036,3755 14700,3755 L 14521,3755 14163,4808 Z"/>
        </g>
       </g>
       <g class="com.sun.star.drawing.ClosedBezierShape">
        <g id="id7">
         <rect class="BoundingBox" stroke="none" fill="none" x="15712" y="4209" width="2270" height="2374"/>
         <path fill="rgb(255,255,255)" stroke="none" d="M 17447,5704 L 17743,5800 C 17531,6321 17135,6582 16555,6582 15802,6582 15554,6206 15809,5455 15933,5091 16134,4792 16414,4559 16693,4326 16988,4210 17300,4210 17953,4210 18136,4631 17850,5473 L 16658,5473 C 16457,6064 16507,6360 16807,6360 17087,6360 17284,6193 17398,5858 17413,5813 17429,5762 17447,5704 Z M 16742,5220 L 17230,5220 C 17409,4695 17419,4432 17261,4432 17117,4432 16971,4627 16820,5016 L 16742,5220 Z"/>
        </g>
       </g>
       <g class="com.sun.star.drawing.ClosedBezierShape">
        <g id="id8">
         <rect class="BoundingBox" stroke="none" fill="none" x="17867" y="4207" width="2555" height="2371"/>
         <path fill="rgb(255,255,255)" stroke="none" d="M 20143,6449 C 19917,6527 19709,6566 19520,6566 19239,6566 19096,6479 19089,6304 18892,6486 18665,6577 18410,6577 17934,6577 17771,6356 17921,5914 18035,5578 18333,5342 18815,5206 19258,5081 19509,4930 19569,4754 19648,4523 19572,4407 19342,4407 19076,4407 18905,4519 18829,4743 18805,4813 18795,4906 18798,5021 L 18419,4942 C 18432,4872 18449,4807 18470,4745 18592,4387 18980,4208 19633,4208 20254,4208 20508,4375 20394,4710 L 19929,6080 C 19881,6221 19902,6291 19994,6291 20022,6291 20069,6275 20135,6243 L 20143,6449 Z M 19420,5173 C 19349,5231 19274,5280 19193,5319 18991,5417 18851,5583 18772,5815 18670,6114 18678,6263 18794,6263 18964,6263 19100,6115 19200,5820 L 19420,5173 Z"/>
        </g>
       </g>
       <g class="com.sun.star.drawing.ClosedBezierShape">
        <g id="id9">
         <rect class="BoundingBox" stroke="none" fill="none" x="20257" y="3428" width="1873" height="3104"/>
         <path fill="rgb(255,255,255)" stroke="none" d="M 22129,3428 L 21075,6530 20258,6530 21297,3473 C 21522,3473 21800,3458 22129,3428 Z"/>
        </g>
       </g>
      </g>
      <g class="Group">
       <g class="com.sun.star.drawing.ClosedBezierShape">
        <g id="id10">
         <rect class="BoundingBox" stroke="none" fill="none" x="4103" y="7088" width="8175" height="11585"/>
         <path fill="rgb(237,28,36)" stroke="none" d="M 4637,18008 C 4569,16907 4492,16026 4404,15364 4983,15622 5498,15802 5950,15903 6403,16004 6799,16054 7140,16054 7590,16054 7948,15988 8214,15856 8480,15725 8613,15530 8613,15271 8613,15184 8600,15100 8574,15019 8548,14939 8499,14849 8427,14748 8355,14647 8251,14538 8117,14419 L 6660,13147 C 6319,12858 6081,12649 5946,12520 5673,12256 5459,12011 5307,11783 5155,11556 5043,11325 4974,11089 4904,10854 4869,10605 4869,10341 4869,10026 4925,9717 5036,9415 5147,9113 5313,8830 5536,8566 5758,8303 6052,8075 6419,7884 6786,7693 7179,7562 7597,7493 8016,7423 8448,7388 8892,7388 9765,7388 10716,7489 11744,7690 11760,8047 11778,8374 11799,8671 11819,8968 11868,9489 11946,10233 11471,10042 11036,9908 10644,9833 10251,9758 9912,9721 9628,9721 9225,9721 8890,9796 8624,9946 8358,10096 8225,10282 8225,10504 8225,10607 8246,10708 8287,10806 8328,10905 8406,11020 8520,11151 8633,11283 8783,11428 8969,11585 9155,11743 9447,11977 9845,12287 L 10403,12729 C 10569,12863 10747,13026 10938,13217 11129,13408 11295,13597 11434,13783 11574,13969 11681,14140 11756,14295 11831,14450 11887,14606 11923,14764 11959,14921 11977,15090 11977,15271 11977,15736 11866,16180 11644,16601 11421,17022 11106,17368 10698,17639 10290,17911 9842,18101 9353,18209 8865,18318 8349,18372 7807,18372 6970,18372 5913,18251 4637,18008 Z"/>
         <path fill="none" stroke="rgb(255,249,174)" stroke-width="600" stroke-linejoin="round" d="M 4637,18008 C 4569,16907 4492,16026 4404,15364 4983,15622 5498,15802 5950,15903 6403,16004 6799,16054 7140,16054 7590,16054 7948,15988 8214,15856 8480,15725 8613,15530 8613,15271 8613,15184 8600,15100 8574,15019 8548,14939 8499,14849 8427,14748 8355,14647 8251,14538 8117,14419 L 6660,13147 C 6319,12858 6081,12649 5946,12520 5673,12256 5459,12011 5307,11783 5155,11556 5043,11325 4974,11089 4904,10854 4869,10605 4869,10341 4869,10026 4925,9717 5036,9415 5147,9113 5313,8830 5536,8566 5758,8303 6052,8075 6419,7884 6786,7693 7179,7562 7597,7493 8016,7423 8448,7388 8892,7388 9765,7388 10716,7489 11744,7690 11760,8047 11778,8374 11799,8671 11819,8968 11868,9489 11946,10233 11471,10042 11036,9908 10644,9833 10251,9758 9912,9721 9628,9721 9225,9721 8890,9796 8624,9946 8358,10096 8225,10282 8225,10504 8225,10607 8246,10708 8287,10806 8328,10905 8406,11020 8520,11151 8633,11283 8783,11428 8969,11585 9155,11743 9447,11977 9845,12287 L 10403,12729 C 10569,12863 10747,13026 10938,13217 11129,13408 11295,13597 11434,13783 11574,13969 11681,14140 11756,14295 11831,14450 11887,14606 11923,14764 11959,14921 11977,15090 11977,15271 11977,15736 11866,16180 11644,16601 11421,17022 11106,17368 10698,17639 10290,17911 9842,18101 9353,18209 8865,18318 8349,18372 7807,18372 6970,18372 5913,18251 4637,18008 Z"/>
        </g>
       </g>
       <g class="com.sun.star.drawing.ClosedBezierShape">
        <g id="id11">
         <rect class="BoundingBox" stroke="none" fill="none" x="12879" y="7088" width="8175" height="11585"/>
         <path fill="rgb(237,28,36)" stroke="none" d="M 13413,18008 C 13345,16907 13268,16026 13180,15364 13759,15622 14274,15802 14726,15903 15179,16004 15575,16054 15916,16054 16366,16054 16724,15988 16990,15856 17256,15725 17389,15530 17389,15271 17389,15184 17376,15100 17350,15019 17324,14939 17275,14849 17203,14748 17131,14647 17027,14538 16893,14419 L 15436,13147 C 15095,12858 14857,12649 14722,12520 14449,12256 14235,12011 14083,11783 13931,11556 13819,11325 13750,11089 13680,10854 13645,10605 13645,10341 13645,10026 13701,9717 13812,9415 13923,9113 14089,8830 14312,8566 14534,8303 14828,8075 15195,7884 15562,7693 15955,7562 16373,7493 16792,7423 17224,7388 17668,7388 18541,7388 19492,7489 20520,7690 20536,8047 20554,8374 20575,8671 20595,8968 20644,9489 20722,10233 20247,10042 19812,9908 19420,9833 19027,9758 18688,9721 18404,9721 18001,9721 17666,9796 17400,9946 17134,10096 17001,10282 17001,10504 17001,10607 17022,10708 17063,10806 17104,10905 17182,11020 17296,11151 17409,11283 17559,11428 17745,11585 17931,11743 18223,11977 18621,12287 L 19179,12729 C 19345,12863 19523,13026 19714,13217 19905,13408 20071,13597 20210,13783 20350,13969 20457,14140 20532,14295 20607,14450 20663,14606 20699,14764 20735,14921 20753,15090 20753,15271 20753,15736 20642,16180 20420,16601 20197,17022 19882,17368 19474,17639 19066,17911 18618,18101 18129,18209 17641,18318 17125,18372 16583,18372 15746,18372 14689,18251 13413,18008 Z"/>
         <path fill="none" stroke="rgb(255,249,174)" stroke-width="600" stroke-linejoin="round" d="M 13413,18008 C 13345,16907 13268,16026 13180,15364 13759,15622 14274,15802 14726,15903 15179,16004 15575,16054 15916,16054 16366,16054 16724,15988 16990,15856 17256,15725 17389,15530 17389,15271 17389,15184 17376,15100 17350,15019 17324,14939 17275,14849 17203,14748 17131,14647 17027,14538 16893,14419 L 15436,13147 C 15095,12858 14857,12649 14722,12520 14449,12256 14235,12011 14083,11783 13931,11556 13819,11325 13750,11089 13680,10854 13645,10605 13645,10341 13645,10026 13701,9717 13812,9415 13923,9113 14089,8830 14312,8566 14534,8303 14828,8075 15195,7884 15562,7693 15955,7562 16373,7493 16792,7423 17224,7388 17668,7388 18541,7388 19492,7489 20520,7690 20536,8047 20554,8374 20575,8671 20595,8968 20644,9489 20722,10233 20247,10042 19812,9908 19420,9833 19027,9758 18688,9721 18404,9721 18001,9721 17666,9796 17400,9946 17134,10096 17001,10282 17001,10504 17001,10607 17022,10708 17063,10806 17104,10905 17182,11020 17296,11151 17409,11283 17559,11428 17745,11585 17931,11743 18223,11977 18621,12287 L 19179,12729 C 19345,12863 19523,13026 19714,13217 19905,13408 20071,13597 20210,13783 20350,13969 20457,14140 20532,14295 20607,14450 20663,14606 20699,14764 20735,14921 20753,15090 20753,15271 20753,15736 20642,16180 20420,16601 20197,17022 19882,17368 19474,17639 19066,17911 18618,18101 18129,18209 17641,18318 17125,18372 16583,18372 15746,18372 14689,18251 13413,18008 Z"/>
        </g>
       </g>
      </g>
      <g class="Group">
       <g class="com.sun.star.drawing.ClosedBezierShape">
        <g id="id12">
         <rect class="BoundingBox" stroke="none" fill="none" x="3382" y="19376" width="2395" height="2258"/>
         <path fill="rgb(255,255,255)" stroke="none" d="M 3382,21633 L 4149,19376 5123,19376 C 5676,19376 5877,19597 5727,20039 5575,20485 5192,20708 4578,20708 L 4351,20708 4037,21633 3382,21633 Z M 4422,20500 L 4569,20500 C 4808,20500 4981,20342 5088,20027 5188,19732 5119,19584 4881,19584 L 4733,19584 4422,20500 Z"/>
        </g>
       </g>
       <g class="com.sun.star.drawing.ClosedBezierShape">
        <g id="id13">
         <rect class="BoundingBox" stroke="none" fill="none" x="5381" y="19923" width="1759" height="1711"/>
         <path fill="rgb(255,255,255)" stroke="none" d="M 6938,20571 L 6525,20571 C 6561,20506 6590,20458 6612,20427 6642,20382 6664,20341 6676,20305 6700,20234 6687,20199 6636,20199 6598,20199 6545,20246 6478,20339 6411,20432 6360,20530 6325,20634 L 5985,21633 5381,21633 5948,19966 6064,19968 C 6203,19968 6371,19953 6566,19923 L 6473,20197 C 6633,20014 6785,19923 6927,19923 7121,19923 7182,20030 7109,20244 7090,20300 7059,20364 7015,20437 6998,20467 6973,20511 6938,20571 Z"/>
        </g>
       </g>
       <g class="com.sun.star.drawing.ClosedBezierShape">
        <g id="id14">
         <rect class="BoundingBox" stroke="none" fill="none" x="6952" y="19923" width="1815" height="1747"/>
         <path fill="rgb(255,255,255)" stroke="none" d="M 8157,19923 C 8708,19923 8885,20214 8687,20796 8489,21378 8115,21669 7563,21669 7011,21669 6833,21378 7031,20796 7229,20214 7604,19923 8157,19923 Z M 8105,20070 C 7972,20070 7823,20312 7658,20796 7494,21280 7478,21522 7612,21522 7746,21522 7896,21280 8060,20796 8225,20312 8240,20070 8105,20070 Z"/>
        </g>
       </g>
       <g class="com.sun.star.drawing.ClosedBezierShape">
        <g id="id15">
         <rect class="BoundingBox" stroke="none" fill="none" x="8760" y="19341" width="2173" height="2331"/>
         <path fill="rgb(255,255,255)" stroke="none" d="M 10932,19341 L 10153,21633 9549,21633 9598,21489 C 9455,21610 9299,21671 9129,21671 8755,21671 8665,21383 8861,20808 9062,20216 9361,19920 9758,19920 9914,19920 10015,19989 10061,20126 L 10316,19376 C 10498,19376 10703,19364 10932,19341 Z M 9870,20163 C 9769,20163 9686,20256 9623,20442 L 9492,20796 9388,21118 C 9318,21325 9340,21428 9455,21428 9566,21428 9657,21326 9726,21123 L 9873,20717 9953,20439 C 9998,20255 9970,20163 9870,20163 Z"/>
        </g>
       </g>
       <g class="com.sun.star.drawing.ClosedBezierShape">
        <g id="id16">
         <rect class="BoundingBox" stroke="none" fill="none" x="10585" y="19923" width="2065" height="1742"/>
         <path fill="rgb(255,255,255)" stroke="none" d="M 12648,19923 L 12067,21633 11463,21633 11553,21367 C 11347,21565 11135,21664 10917,21664 10622,21664 10524,21521 10621,21234 L 11052,19966 C 11258,19957 11465,19943 11671,19923 L 11230,21220 C 11192,21332 11207,21388 11275,21388 11456,21388 11612,21194 11744,20806 L 12029,19966 C 12234,19957 12440,19943 12648,19923 Z"/>
        </g>
       </g>
       <g class="com.sun.star.drawing.ClosedBezierShape">
        <g id="id17">
         <rect class="BoundingBox" stroke="none" fill="none" x="12526" y="19918" width="1712" height="1752"/>
         <path fill="rgb(255,255,255)" stroke="none" d="M 13842,20889 L 14070,20967 14050,21034 C 13906,21457 13602,21669 13139,21669 12590,21669 12410,21391 12599,20834 12693,20555 12849,20333 13065,20167 13282,20001 13524,19918 13793,19918 14180,19918 14314,20093 14195,20444 L 13866,20581 13923,20422 C 14004,20184 13964,20065 13804,20065 13593,20065 13408,20299 13249,20766 13151,21055 13106,21253 13114,21361 13123,21468 13189,21522 13311,21522 13535,21522 13696,21377 13795,21087 13809,21046 13824,20980 13842,20889 Z"/>
        </g>
       </g>
       <g class="com.sun.star.drawing.ClosedBezierShape">
        <g id="id18">
         <rect class="BoundingBox" stroke="none" fill="none" x="14182" y="19429" width="1342" height="2223"/>
         <path fill="rgb(255,255,255)" stroke="none" d="M 15522,19971 L 15458,20158 15191,20158 14791,21337 C 14766,21411 14777,21448 14824,21448 14858,21448 14887,21423 14910,21374 L 15076,21390 C 14970,21564 14789,21651 14535,21651 14232,21651 14124,21522 14211,21264 L 14587,20158 14385,20158 14449,19971 14651,19971 14751,19677 C 14979,19620 15208,19537 15439,19429 L 15255,19971 15522,19971 Z"/>
        </g>
       </g>
       <g class="com.sun.star.drawing.ClosedBezierShape">
        <g id="id19">
         <rect class="BoundingBox" stroke="none" fill="none" x="15155" y="19319" width="1315" height="2315"/>
         <path fill="rgb(255,255,255)" stroke="none" d="M 16246,19319 C 16434,19319 16503,19392 16453,19538 16404,19683 16285,19756 16098,19756 15911,19756 15842,19683 15891,19538 15941,19392 16059,19319 16246,19319 Z M 15155,21633 L 15721,19968 C 15910,19968 16116,19953 16340,19923 L 15759,21633 15155,21633 Z"/>
        </g>
       </g>
       <g class="com.sun.star.drawing.ClosedBezierShape">
        <g id="id20">
         <rect class="BoundingBox" stroke="none" fill="none" x="16228" y="19923" width="1815" height="1747"/>
         <path fill="rgb(255,255,255)" stroke="none" d="M 17433,19923 C 17984,19923 18161,20214 17963,20796 17765,21378 17391,21669 16839,21669 16287,21669 16109,21378 16307,20796 16505,20214 16880,19923 17433,19923 Z M 17381,20070 C 17248,20070 17099,20312 16934,20796 16770,21280 16754,21522 16888,21522 17022,21522 17172,21280 17336,20796 17501,20312 17516,20070 17381,20070 Z"/>
        </g>
       </g>
       <g class="com.sun.star.drawing.ClosedBezierShape">
        <g id="id21">
         <rect class="BoundingBox" stroke="none" fill="none" x="17937" y="19920" width="2048" height="1714"/>
         <path fill="rgb(255,255,255)" stroke="none" d="M 19510,21633 L 18906,21633 19322,20409 C 19364,20284 19351,20222 19281,20222 19211,20222 19133,20271 19048,20370 18962,20468 18897,20585 18851,20720 L 18541,21633 17937,21633 18505,19962 C 18712,19962 18918,19949 19123,19921 L 19016,20234 C 19237,20026 19455,19923 19671,19923 19951,19923 20043,20065 19946,20349 L 19510,21633 Z"/>
        </g>
       </g>
       <g class="com.sun.star.drawing.ClosedBezierShape">
        <g id="id22">
         <rect class="BoundingBox" stroke="none" fill="none" x="19891" y="19925" width="1696" height="1749"/>
         <path fill="rgb(255,255,255)" stroke="none" d="M 21570,20394 L 21260,20446 C 21344,20197 21271,20072 21039,20072 20897,20072 20806,20130 20766,20247 20737,20333 20828,20426 21039,20525 21362,20678 21484,20873 21404,21109 21276,21485 20973,21673 20496,21673 19991,21673 19802,21485 19930,21109 L 20262,21046 C 20245,21082 20231,21116 20220,21148 20187,21245 20199,21330 20256,21401 20313,21473 20396,21509 20507,21509 20653,21509 20747,21447 20789,21324 20817,21241 20730,21150 20529,21049 20227,20897 20116,20702 20197,20464 20250,20306 20362,20177 20532,20076 20702,19975 20893,19925 21106,19925 21484,19925 21639,20081 21570,20394 Z"/>
        </g>
       </g>
      </g>
      <g class="com.sun.star.drawing.ClosedBezierShape">
       <g id="id23">
        <rect class="BoundingBox" stroke="none" fill="none" x="21651" y="21273" width="442" height="442"/>
        <path fill="rgb(255,255,255)" stroke="none" d="M 21774,21621 L 21774,21368 21884,21368 C 21947,21368 21978,21390 21978,21434 21978,21464 21962,21484 21929,21494 21954,21505 21967,21523 21969,21547 L 21973,21580 C 21974,21598 21979,21611 21987,21621 L 21903,21621 C 21897,21609 21895,21594 21895,21576 L 21894,21538 C 21894,21514 21883,21502 21861,21502 L 21851,21502 21851,21621 21774,21621 Z M 21851,21477 L 21863,21477 C 21890,21477 21904,21463 21904,21435 21904,21407 21890,21393 21863,21393 L 21851,21393 21851,21477 Z M 21872,21274 C 21933,21274 21985,21295 22028,21338 22071,21381 22092,21433 22092,21494 22092,21555 22071,21607 22028,21650 21985,21693 21933,21714 21872,21714 21811,21714 21760,21693 21717,21650 21674,21607 21652,21555 21652,21494 21652,21433 21673,21382 21716,21339 21759,21296 21811,21274 21872,21274 Z M 21872,21305 C 21820,21305 21776,21323 21740,21360 21703,21397 21685,21442 21685,21494 21685,21546 21703,21591 21740,21628 21776,21665 21820,21683 21872,21683 21924,21683 21968,21665 22004,21628 22041,21591 22059,21546 22059,21494 22059,21442 22041,21397 22004,21360 21968,21323 21924,21305 21872,21305 Z"/>
       </g>
      </g>
     </g>
    </g>
   </g>
  </g>
 </g>
</svg>